<?xml version="1.0" encoding="UTF-8"?>
<svg xmlns="http://www.w3.org/2000/svg" xmlns:xlink="http://www.w3.org/1999/xlink" viewBox="0 0 40 40">
<defs>

<symbol id="backspace" viewBox="0 0 40 40">
<path d="m16.14,10.81h0c.52-.52,1.36-.52,1.89,0l7.31,7.31,7.31-7.31c.52-.52,1.36-.52,1.89,0h0c.52.52.52,1.36,0,1.89l-7.31,7.31,7.31,7.31c.52.52.52,1.36,0,1.89h0c-.52.52-1.36.52-1.89,0l-7.31-7.31-7.31,7.31c-.52.52-1.36.52-1.89,0h0c-.52-.52-.52-1.36,0-1.89l7.31-7.31-7.31-7.31c-.52-.52-.52-1.36,0-1.89Zm23.86,20.69V8.5c0-1.79-1.46-3.25-3.25-3.25H14.75c-.87,0-1.68.34-2.3.95L.95,17.7C.34,18.32,0,19.13,0,20s.34,1.68.95,2.3l11.5,11.5c.61.61,1.43.95,2.3.95h22c1.79,0,3.25-1.46,3.25-3.25Z"/>
</symbol>

</defs>
<use width="40" height="40" xlink:href="#backspace"/>
</svg>