<svg width="24" height="24" viewBox="0 0 24 24" fill="none" xmlns="http://www.w3.org/2000/svg">
    <path
        d="M12 0C9.62662 0 7.30651 0.703792 5.33312 2.02237C3.35973 3.34095 1.8217 5.21508 0.913445 7.40779C0.00519377 9.6005 -0.232439 12.0133 0.230584 14.3411C0.693607 16.6689 1.83647 18.807 3.5147 20.4853C5.19293 22.1635 7.33116 23.3064 9.65893 23.7694C11.9867 24.2324 14.3995 23.9948 16.5922 23.0865C18.7849 22.1783 20.6591 20.6402 21.9777 18.6668C23.2962 16.6934 24 14.3734 24 12C24 8.8174 22.7357 5.76515 20.4853 3.51471C18.2348 1.26427 15.1826 0 12 0ZM10.45 16.49C10.3574 16.5845 10.2469 16.6597 10.1251 16.7112C10.0032 16.7626 9.87229 16.7894 9.73998 16.79C9.60768 16.7894 9.47679 16.7626 9.35491 16.7112C9.23304 16.6597 9.12258 16.5845 9.02996 16.49L4.77996 12.24L6.19 10.83L9.73998 14.37L17.68 6.37L19.1 7.78L10.45 16.49Z"
        fill="#74A333"/>
</svg>
