<svg xmlns="http://www.w3.org/2000/svg" width="221.302" height="258.103" viewBox="0 0 221.302 258.103">
  <g id="Group_1557" data-name="Group 1557" transform="translate(-3669.344 -4648.259)">
    <rect id="Rectangle_882" data-name="Rectangle 882" width="176.464" height="212.478" rx="19" transform="translate(3709.681 4652.759)" fill="#fff" stroke="#707070" stroke-width="9"/>
    <rect id="Rectangle_883" data-name="Rectangle 883" width="176.464" height="212.478" rx="19" transform="translate(3692.156 4670.741)" fill="#fff" stroke="#707070" stroke-width="9"/>
    <rect id="Rectangle_884" data-name="Rectangle 884" width="176.464" height="212.478" rx="19" transform="translate(3673.844 4689.384)" fill="#fff" stroke="#707070" stroke-width="9"/>
    <path id="Path_941" data-name="Path 941" d="M3746.79,4730.982v22.543h-46.159v-46.159h31.834" fill="none" stroke="#707070" stroke-linejoin="round" stroke-width="7"/>
    <path id="Path_942" data-name="Path 942" d="M3746.79,4711.8l-23.08,23.08-9.065-9.065" fill="none" stroke="#707070" stroke-linejoin="round" stroke-width="7"/>
    <path id="Path_943" data-name="Path 943" d="M3746.79,4796.16V4818.7h-46.159v-46.159h31.834" fill="none" stroke="#707070" stroke-linejoin="round" stroke-width="7"/>
    <path id="Path_944" data-name="Path 944" d="M3746.79,4776.98l-23.08,23.08-9.065-9.065" fill="none" stroke="#707070" stroke-linejoin="round" stroke-width="7"/>
    <path id="Path_945" data-name="Path 945" d="M3746.79,4861.336v22.543h-46.159v-46.159h31.834" fill="none" stroke="#707070" stroke-linejoin="round" stroke-width="7"/>
    <path id="Path_946" data-name="Path 946" d="M3746.79,4842.157l-23.08,23.08-9.065-9.065" fill="none" stroke="#707070" stroke-linejoin="round" stroke-width="7"/>
    <path id="Path_954" data-name="Path 954" d="M63.725,3.5H0v-7H63.725Z" transform="translate(3762.075 4711.803)" fill="#707070"/>
    <path id="Path_953" data-name="Path 953" d="M63.725,3.5H0v-7H63.725Z" transform="translate(3762.075 4730.446)" fill="#707070"/>
    <path id="Path_952" data-name="Path 952" d="M63.725,3.5H0v-7H63.725Z" transform="translate(3762.075 4749.089)" fill="#707070"/>
    <path id="Path_951" data-name="Path 951" d="M63.725,3.5H0v-7H63.725Z" transform="translate(3762.075 4776.98)" fill="#707070"/>
    <path id="Path_950" data-name="Path 950" d="M63.725,3.5H0v-7H63.725Z" transform="translate(3762.075 4795.623)" fill="#707070"/>
    <path id="Path_949" data-name="Path 949" d="M63.725,3.5H0v-7H63.725Z" transform="translate(3762.075 4814.266)" fill="#707070"/>
    <path id="Path_948" data-name="Path 948" d="M63.725,3.5H0v-7H63.725Z" transform="translate(3762.075 4842.157)" fill="#707070"/>
    <path id="Path_947" data-name="Path 947" d="M63.725,3.5H0v-7H63.725Z" transform="translate(3762.075 4860.8)" fill="#707070"/>
    <path id="Path_947-2" data-name="Path 947" d="M63.725,3.5H0v-7H63.725Z" transform="translate(3762.075 4879.443)" fill="#707070"/>
  </g>
</svg>
