<?xml version="1.0" encoding="UTF-8"?>
<svg xmlns="http://www.w3.org/2000/svg" xmlns:xlink="http://www.w3.org/1999/xlink" viewBox="0 0 40 40">
<defs>

<symbol id="shift" viewBox="0 0 40 40">
<path d="m26.5,37h-13c-.69,0-1.25-.56-1.25-1.25v-11.75H1.5c-.51,0-.96-.3-1.16-.77-.19-.47-.09-1,.27-1.36L19.12,3.37c.49-.49,1.28-.49,1.77,0l18.5,18.5c.36.36.46.9.27,1.36-.19.47-.65.77-1.16.77h-10.75v11.75c0,.69-.56,1.25-1.25,1.25Zm-11.75-2.5h10.5v-11.75c0-.69.56-1.25,1.25-1.25h8.98l-15.48-15.48-15.48,15.48h8.98c.69,0,1.25.56,1.25,1.25v11.75Z"/>
</symbol>

</defs>
<use width="40" height="40" xlink:href="#shift"/>
</svg>